<svg xmlns="http://www.w3.org/2000/svg" width="26" height="26" viewBox="0 0 26 26">
    <g fill="none" fill-rule="evenodd">
        <path fill="#3B5998" d="M13 26c7.18 0 13-5.82 13-13 0-7.179-5.82-13-13-13S0 5.821 0 13c0 7.18 5.82 13 13 13"/>
        <path fill="#FEFEFE" d="M9.63 10.624h1.364V9.298c0-.585.014-1.487.44-2.045.447-.591 1.061-.994 2.117-.994 1.721 0 2.446.246 2.446.246l-.34 2.021s-.57-.164-1.1-.164c-.53 0-1.006.19-1.006.72v1.542h2.176l-.152 1.974h-2.024v6.859h-2.557v-6.86H9.63v-1.973z"/>
    </g>
</svg>
