<svg xmlns="http://www.w3.org/2000/svg" width="85" height="94" viewBox="0 0 85 94">
    <path fill="#FFF" fill-opacity=".9" fill-rule="nonzero" d="M18.576 9C24.02 3.446 31.608 0 40 0s15.98 3.446 21.424 9h21.713C84.166 9 85 9.691 85 10.544v81.912C85 93.31 84.166 94 83.137 94H1.863C.834 94 0 93.309 0 92.456V10.544C0 9.69.834 9 1.863 9h16.713zm4.452 0h33.944A26.887 26.887 0 0 0 40 3a26.887 26.887 0 0 0-16.972 6zM3 91h79V32H3v59zm0-62h79V12H3v17zm8.263-6.07a2.039 2.039 0 1 1 0-4.078 2.039 2.039 0 0 1 0 4.078zm7.615 0a2.039 2.039 0 1 1 0-4.078 2.039 2.039 0 0 1 0 4.078zm7.614 0a2.039 2.039 0 1 1 0-4.078 2.039 2.039 0 0 1 0 4.078zm-15.15 36.121a2.02 2.02 0 0 1 0 4.04 2.029 2.029 0 0 1-2.03-2.02c0-1.115.894-2.02 2.01-2.02h.02zm31.02 0a2.02 2.02 0 0 1 0 4.04c-1.115 0-2.038-.904-2.038-2.02 0-1.115.884-2.02 2-2.02h.039zm-15.51 0a2.02 2.02 0 0 1 0 4.04c-1.115 0-2.04-.904-2.04-2.02 0-1.115.886-2.02 2.001-2.02h.04zm-7.755 0a2.02 2.02 0 0 1 0 4.04c-1.116 0-2.04-.904-2.04-2.02 0-1.115.886-2.02 2.002-2.02h.038zm15.51 0a2.02 2.02 0 0 1 0 4.04c-1.115 0-2.039-.904-2.039-2.02 0-1.115.885-2.02 2-2.02h.04zm15.51 0a2.02 2.02 0 0 1 0 4.04c-1.115 0-2.038-.904-2.038-2.02 0-1.115.885-2.02 2-2.02h.039zm7.738 0a2.02 2.02 0 0 1 0 4.04 2.029 2.029 0 0 1-2.03-2.02c0-1.115.894-2.02 2.01-2.02h.02zm-46.513 19.98a2.02 2.02 0 0 1 0 4.04 2.029 2.029 0 0 1-2.03-2.02c0-1.115.894-2.02 2.01-2.02h.02zm23.265 0a2.02 2.02 0 0 1 0 4.04c-1.115 0-2.039-.904-2.039-2.02 0-1.115.885-2.02 2-2.02h.04zm-7.755 0a2.02 2.02 0 0 1 0 4.04c-1.115 0-2.04-.904-2.04-2.02 0-1.115.886-2.02 2.001-2.02h.04zm-7.755 0a2.02 2.02 0 0 1 0 4.04c-1.116 0-2.04-.904-2.04-2.02 0-1.115.886-2.02 2.002-2.02h.038zm23.266 0a2.02 2.02 0 0 1 0 4.04c-1.116 0-2.04-.904-2.04-2.02 0-1.115.885-2.02 2-2.02h.04zm7.755 0a2.02 2.02 0 0 1 0 4.04c-1.116 0-2.04-.904-2.04-2.02 0-1.115.886-2.02 2.001-2.02h.039zm7.737 0a2.02 2.02 0 0 1 0 4.04 2.029 2.029 0 0 1-2.03-2.02c0-1.115.894-2.02 2.01-2.02h.02zm-46.513-29.97a2.02 2.02 0 0 1 0 4.04 2.029 2.029 0 0 1-2.03-2.02c0-1.116.894-2.02 2.01-2.02h.02zm38.776 0a2.02 2.02 0 0 1 0 4.04c-1.116 0-2.04-.905-2.04-2.02 0-1.116.886-2.02 2.001-2.02h.039zm-15.51 0a2.02 2.02 0 0 1 0 4.04c-1.116 0-2.04-.905-2.04-2.02 0-1.116.885-2.02 2-2.02h.04zm-15.511 0a2.02 2.02 0 0 1 0 4.04c-1.116 0-2.04-.905-2.04-2.02 0-1.116.886-2.02 2.002-2.02h.038zm23.266 0a2.02 2.02 0 0 1 0 4.04c-1.116 0-2.04-.905-2.04-2.02 0-1.116.885-2.02 2-2.02h.04zm-15.51 0a2.02 2.02 0 0 1 0 4.04c-1.116 0-2.04-.905-2.04-2.02 0-1.116.885-2.02 2-2.02h.04zm31.002 0a2.02 2.02 0 0 1 0 4.04 2.029 2.029 0 0 1-2.03-2.02c0-1.116.894-2.02 2.01-2.02h.02zM11.342 39.07a2.02 2.02 0 0 1 0 4.04 2.029 2.029 0 0 1-2.03-2.02c0-1.116.894-2.02 2.01-2.02h.02zm38.776 0a2.02 2.02 0 0 1 0 4.04c-1.116 0-2.04-.905-2.04-2.02 0-1.116.886-2.02 2.001-2.02h.039zm-31.021 0a2.02 2.02 0 0 1 0 4.04c-1.116 0-2.04-.905-2.04-2.02 0-1.116.886-2.02 2.002-2.02h.038zm7.755 0a2.02 2.02 0 0 1 0 4.04c-1.115 0-2.04-.905-2.04-2.02 0-1.116.886-2.02 2.001-2.02h.04zm7.755 0a2.02 2.02 0 0 1 0 4.04c-1.115 0-2.039-.905-2.039-2.02 0-1.116.885-2.02 2-2.02h.04zm7.756 0a2.02 2.02 0 0 1 0 4.04c-1.116 0-2.04-.905-2.04-2.02 0-1.116.885-2.02 2-2.02h.04zm15.492 0a2.02 2.02 0 0 1 0 4.04 2.029 2.029 0 0 1-2.03-2.02c0-1.116.894-2.02 2.01-2.02h.02zM11.342 69.042a2.02 2.02 0 0 1 0 4.04 2.029 2.029 0 0 1-2.03-2.02c0-1.116.894-2.02 2.01-2.02h.02zm23.265 0a2.02 2.02 0 0 1 0 4.04c-1.115 0-2.039-.905-2.039-2.02 0-1.116.885-2.02 2-2.02h.04zm7.756 0a2.02 2.02 0 0 1 0 4.04c-1.116 0-2.04-.905-2.04-2.02 0-1.116.885-2.02 2-2.02h.04zm7.755 0a2.02 2.02 0 0 1 0 4.04c-1.116 0-2.04-.905-2.04-2.02 0-1.116.886-2.02 2.001-2.02h.039zm-23.266 0a2.02 2.02 0 0 1 0 4.04c-1.115 0-2.04-.905-2.04-2.02 0-1.116.886-2.02 2.001-2.02h.04zm-7.755 0a2.02 2.02 0 0 1 0 4.04c-1.116 0-2.04-.905-2.04-2.02 0-1.116.886-2.02 2.002-2.02h.038zm38.758 0a2.02 2.02 0 0 1 0 4.04 2.029 2.029 0 0 1-2.03-2.02c0-1.116.894-2.02 2.01-2.02h.02zm8-9.99a2.02 2.02 0 0 1 0 4.039 2.029 2.029 0 0 1-2.03-2.02c0-1.115.894-2.02 2.01-2.02h.02zm0 19.98a2.02 2.02 0 0 1 0 4.04 2.029 2.029 0 0 1-2.03-2.02c0-1.116.894-2.02 2.01-2.02h.02zm0-29.971a2.02 2.02 0 0 1 0 4.04 2.029 2.029 0 0 1-2.03-2.02c0-1.116.894-2.02 2.01-2.02h.02zm0-9.991a2.02 2.02 0 0 1 0 4.04 2.029 2.029 0 0 1-2.03-2.02c0-1.116.894-2.02 2.01-2.02h.02zm0 29.972a2.02 2.02 0 0 1 0 4.04 2.029 2.029 0 0 1-2.03-2.02c0-1.116.894-2.02 2.01-2.02h.02zm8-9.99a2.02 2.02 0 0 1 0 4.039 2.029 2.029 0 0 1-2.03-2.02c0-1.115.894-2.02 2.01-2.02h.02zm0 19.98a2.02 2.02 0 0 1 0 4.04 2.029 2.029 0 0 1-2.03-2.02c0-1.116.894-2.02 2.01-2.02h.02zm0-29.971a2.02 2.02 0 0 1 0 4.04 2.029 2.029 0 0 1-2.03-2.02c0-1.116.894-2.02 2.01-2.02h.02zm0-9.991a2.02 2.02 0 0 1 0 4.04 2.029 2.029 0 0 1-2.03-2.02c0-1.116.894-2.02 2.01-2.02h.02zm0 29.972a2.02 2.02 0 0 1 0 4.04 2.029 2.029 0 0 1-2.03-2.02c0-1.116.894-2.02 2.01-2.02h.02z"/>
</svg>
