<svg xmlns="http://www.w3.org/2000/svg" width="66" height="111" viewBox="0 0 66 111">
    <g fill="none" fill-rule="evenodd" opacity=".9">
        <path fill="#FFF" fill-rule="nonzero" d="M30.5 17.128C30.5 7.684 38.354 0 48.005 0c9.652 0 17.504 7.684 17.497 17.268l-1.551 15.28a1.434 1.434 0 0 1-1.418 1.274l-2.753.039-1.437 55.176c-.02.768-.661 1.38-1.445 1.38H39.872c-.777 0-1.415-.602-1.445-1.363l-2.093-54.863-2.837.04a1.435 1.435 0 0 1-1.439-1.28c-1.038-10.518-1.557-15.793-1.557-15.823zm30.601 13.508l1.406-13.682C62.47 9.254 55.978 3 48.004 3S33.538 9.255 33.501 16.956L34.907 31l26.194-.364zM55.483 75l1.023-41-17.003.25L40.993 75h14.49zM53.29 87h1.469l.246-9H41.003l.361 9h11.927zm-2.253-24H44.97c-.81 0-1.467-.63-1.467-1.405v-12.19c0-.776.657-1.405 1.467-1.405h6.068c.81 0 1.467.629 1.467 1.405v12.19c0 .776-.657 1.405-1.467 1.405zm-4.534-3h3v-9h-3v9z"/>
        <path stroke="#FFF" stroke-linecap="round" stroke-width="3" d="M47.877 89.103v9.85c.346 4.944-3.393 9.232-8.352 9.579-4.958.347-9.258-3.38-9.604-8.323l-2.864-40.955c-.345-4.943-4.645-8.67-9.604-8.323-4.958.347-8.697 4.635-8.352 9.579l1.404 20.07c.475 6.793-2.427 10.692-8.706 11.697"/>
    </g>
</svg>
