<svg xmlns="http://www.w3.org/2000/svg" width="85" height="85" viewBox="0 0 85 85">
    <path fill="#FFF" fill-rule="evenodd" d="M52.12 71.055a7.069 7.069 0 0 1 2.854.227L72.952 38.85a7 7 0 1 1 2.982 1.84L57.978 73.08a7 7 0 1 1-9.139-.71L34.279 13.962a6.984 6.984 0 0 1-4.49-2.29l-16.254 11.81a7 7 0 1 1-2.036-2.847L28.166 8.525a7 7 0 1 1 9.588 4.913L52.12 71.054zM78 38a4 4 0 1 0 0-8 4 4 0 0 0 0 8zM53 82a4 4 0 1 0 0-8 4 4 0 0 0 0 8zM35 11a4 4 0 1 0 0-8 4 4 0 0 0 0 8zM7 30a4 4 0 1 0 0-8 4 4 0 0 0 0 8z" opacity=".9"/>
</svg>
