<svg xmlns="http://www.w3.org/2000/svg" width="190" height="29" viewBox="0 0 190 29">
    <path fill="#FFF" fill-rule="evenodd" d="M34.31 14.143H9.67a1.76 1.76 0 0 1-1.756-1.763 1.76 1.76 0 0 1 1.756-1.762H34.31c.97 0 1.757.789 1.757 1.762a1.76 1.76 0 0 1-1.757 1.763zM6.132 24.76c-.45 0-.9-.172-1.244-.517-6.519-6.541-6.519-17.185 0-23.726a1.756 1.756 0 0 1 2.489 0 1.77 1.77 0 0 1 0 2.498c-5.147 5.164-5.147 13.567 0 18.73a1.77 1.77 0 0 1 0 2.498 1.75 1.75 0 0 1-1.245.517zm31.714 0c-.45 0-.9-.172-1.244-.517a1.77 1.77 0 0 1 0-2.497c5.146-5.164 5.146-13.567 0-18.731a1.77 1.77 0 0 1 0-2.498 1.756 1.756 0 0 1 2.489 0c6.518 6.541 6.518 17.185 0 23.726a1.75 1.75 0 0 1-1.245.518zm18.541-8.002l3.194-.988c.358 2.695 2.418 4.463 4.925 4.463 2.478 0 4.09-1.168 4.09-2.966 0-4.972-11.433-2.246-11.433-9.795 0-3.325 3.075-5.631 7.164-5.631 3.91 0 6.985 2.097 7.582 5.242l-3.134 1.288c-.418-2.127-2.06-3.475-4.448-3.475-2.269 0-3.642.959-3.642 2.576 0 4.224 11.463 1.288 11.463 9.735 0 3.655-3.075 6.08-7.761 6.08-4.06 0-7.403-2.695-8-6.529zm24.686-9.046c4.508 0 7.761 3.265 7.761 7.788s-3.253 7.788-7.76 7.788c-4.538 0-7.762-3.265-7.762-7.788s3.224-7.788 7.761-7.788zm4.478 7.788c0-2.906-1.821-4.943-4.478-4.943-2.686 0-4.477 2.037-4.477 4.943 0 2.905 1.79 4.942 4.477 4.942 2.657 0 4.478-2.037 4.478-4.942zm18.209 7.548h-3.254v-2.516c-1.015 1.618-2.746 2.756-4.955 2.756-3.194 0-5.433-2.127-5.433-5.392V7.952h3.254v9.196c0 1.886 1.164 3.204 3.074 3.204 2.538 0 4.06-2.156 4.06-5.78v-6.62h3.254v15.096zm1.582-15.096h3.254v2.516c1.015-1.618 2.746-2.756 4.955-2.756 3.194 0 5.432 2.127 5.432 5.392v9.944h-3.253v-9.195c0-1.888-1.164-3.206-3.075-3.206-2.537 0-4.06 2.157-4.06 5.781v6.62h-3.253V7.952zm14.985 7.548c0-4.553 2.597-7.788 7.134-7.788 1.94 0 3.702.869 4.597 2.127V1.84h3.254v21.207h-3.254v-1.917c-.716 1.258-2.537 2.157-4.537 2.157-4.597 0-7.194-3.235-7.194-7.788zm11.97 0c0-2.995-1.731-4.943-4.358-4.943s-4.358 1.948-4.358 4.943c0 2.965 1.731 4.942 4.358 4.942s4.358-1.977 4.358-4.942zm11.79 7.788c-2.835 0-4.954-1.558-4.954-5.002v-7.549h-2.627V7.952h2.627V3.458h3.253v4.494h3.88v2.785h-3.88v7.369c0 1.498.836 2.276 2.06 2.276.567 0 1.254-.09 1.82-.359l.21 2.905c-.717.24-1.552.36-2.388.36zm11.283-12.52c-2.208 0-4.148 1.976-4.148 6.649v5.631h-3.253V7.952h3.253v2.875c.806-1.797 2.776-3.115 4.597-3.115.567 0 1.223.09 1.672.27l-.18 3.145c-.536-.24-1.252-.36-1.94-.36zm15.464 2.875v9.405h-3.194v-2.306c-.866 1.528-2.717 2.546-4.716 2.546-2.985 0-5.046-1.887-5.046-4.463 0-2.966 2.299-4.553 6.925-5.032l2.837-.3v-.21c0-1.857-1.285-2.995-3.254-2.995-1.821 0-3.104 1.078-3.314 2.875l-2.925-.539c.477-2.965 3.045-4.912 6.24-4.912 3.82 0 6.447 2.157 6.447 5.93zm-3.194 2.905v-.629l-2.865.33c-2.448.27-3.703 1.168-3.703 2.486 0 1.198.986 2.037 2.508 2.037 2.538 0 4.03-1.768 4.06-4.224zm4.717-8.596h3.253v1.917c.836-1.229 2.598-2.157 4.687-2.157 4.447 0 7.075 3.235 7.075 7.788 0 4.553-2.748 7.788-7.255 7.788-1.821 0-3.58-.779-4.507-1.977V28.5h-3.253V7.952zm11.76 7.548c0-2.995-1.731-4.943-4.359-4.943-2.625 0-4.357 1.948-4.357 4.943 0 2.965 1.732 4.942 4.357 4.942 2.628 0 4.36-1.977 4.36-4.942zm3.981-9.874c-1.049 0-1.9-.856-1.9-1.907 0-1.052.851-1.908 1.9-1.908a1.907 1.907 0 0 1 0 3.815zm0-3.532a1.624 1.624 0 0 0 0 3.25 1.624 1.624 0 0 0 0-3.25zm.125.542c.257 0 .447.051.57.154.124.102.185.257.185.465 0 .195-.054.338-.162.429a.735.735 0 0 1-.404.161l.616.956h-.36l-.587-.931h-.356V4.8h-.336V2.636h.834zm-.148.961c.076 0 .148-.002.215-.007a.545.545 0 0 0 .18-.042.286.286 0 0 0 .126-.107.36.36 0 0 0 .048-.2.313.313 0 0 0-.042-.174.29.29 0 0 0-.11-.099.465.465 0 0 0-.153-.047 1.225 1.225 0 0 0-.17-.012h-.444v.688h.35z"/>
</svg>
