<svg xmlns="http://www.w3.org/2000/svg" width="186" height="80" viewBox="0 0 186 80">
    <path fill="#FFF" fill-rule="evenodd" d="M24 24h-4V4a4 4 0 0 1 4-4h92a4 4 0 0 1 4 4v14h-4V4H24v20zm12 44h68v4H36v-4zm9 8h50a2 2 0 0 1 0 4H45a2 2 0 0 1 0-4zm15-4h20v4H60v-4zm54-48h68a4 4 0 0 1 4 4v48a4 4 0 0 1-4 4h-68a4 4 0 0 1-4-4V28a4 4 0 0 1 4-4zm0 4v48h62V28h-62zm67 27a3 3 0 1 0 0-6 3 3 0 0 0 0 6zM3 30h24a3 3 0 0 1 3 3v44a3 3 0 0 1-3 3H3a3 3 0 0 1-3-3V33a3 3 0 0 1 3-3zm0 4v36h24V34H3zm12 44a3 3 0 1 0 0-6 3 3 0 0 0 0 6z"/>
</svg>
