<svg xmlns="http://www.w3.org/2000/svg" width="26" height="26" viewBox="0 0 26 26">
    <g fill="none" fill-rule="evenodd">
        <path fill="#55ACEE" d="M26 13c0-7.179-5.82-13-13-13S0 5.821 0 13c0 7.18 5.82 13 13 13s13-5.82 13-13z"/>
        <path fill="#FEFEFE" d="M19.74 9.39c-.46.204-.955.342-1.474.404.53-.318.938-.821 1.129-1.42a5.107 5.107 0 0 1-1.632.622 2.568 2.568 0 0 0-4.376 2.342 7.29 7.29 0 0 1-5.293-2.684 2.567 2.567 0 0 0 .795 3.43 2.567 2.567 0 0 1-1.164-.32v.031c0 1.245.885 2.283 2.06 2.518-.215.06-.441.09-.677.09-.165 0-.327-.015-.482-.045a2.567 2.567 0 0 0 2.399 1.783 5.153 5.153 0 0 1-3.803 1.064 7.28 7.28 0 0 0 3.937 1.153c4.725 0 7.308-3.912 7.308-7.306 0-.112-.003-.224-.008-.333a5.213 5.213 0 0 0 1.282-1.33"/>
    </g>
</svg>
